@startuml
left to right direction
class INTERLIS.ANYCLASS{
            
        }
        abstract class INTERLIS.METAOBJECT{
            Name : INTERLIS_METAOBJECT_Name_TYPE
            
        }
        abstract class INTERLIS.METAOBJECT_TRANSLATION{
            Name : INTERLIS_METAOBJECT_TRANSLATION_Name_TYPE
            NameInBaseLanguage : INTERLIS_METAOBJECT_TRANSLATION_NameInBaseLanguage_TYPE
            
        }
        abstract class INTERLIS.REFSYSTEM{
            
        }
        abstract class INTERLIS.COORDSYSTEM{
            Axis : INTERLIS_COORDSYSTEM_Axis_TYPE
            
        }
        INTERLIS.REFSYSTEM <|-- INTERLIS.COORDSYSTEM
        abstract class INTERLIS.SCALSYSTEM{
            
        }
        abstract class INTERLIS.SIGN{
            
        }
        class INTERLIS.TIMESYSTEMS.CALENDAR{
            
        }
        class INTERLIS.TIMESYSTEMS.TIMEOFDAYSYS{
            
        }
        abstract class CatalogueObjects_V1.Catalogues.Item {
            
        }
        abstract class CatalogueObjectTrees_V1.Catalogues.Item{
            IsSuperItem : CatalogueObjectTrees_V1_Catalogues_Item_IsSuperItem_TYPE
            IsUseable : CatalogueObjectTrees_V1_Catalogues_Item_IsUseable_TYPE
            
        }
        CatalogueObjects_V1.Catalogues.Item <|-- CatalogueObjectTrees_V1.Catalogues.Item
        
        CatalogueObjectTrees_V1.Catalogues.Item "0..1" *-- "0..*" CatalogueObjectTrees_V1.Catalogues.Item
    class BaseSOB_SIA_V1_0.Katalog.SIA_Lagebestimmung_Item{
            Name : BaseSOB_SIA_V1_0_Katalog_SIA_Lagebestimmung_Item_Name_TYPE
            Code : BaseSOB_SIA_V1_0_Katalog_SIA_Lagebestimmung_Item_Code_TYPE
            
        }
        CatalogueObjects_V1.Catalogues.Item <|-- BaseSOB_SIA_V1_0.Katalog.SIA_Lagebestimmung_Item
        class BaseSOB_SIA_V1_0.Katalog.SIA_Hoehenbestimmung_Item{
            Name : BaseSOB_SIA_V1_0_Katalog_SIA_Hoehenbestimmung_Item_Name_TYPE
            Code : BaseSOB_SIA_V1_0_Katalog_SIA_Hoehenbestimmung_Item_Code_TYPE
            
        }
        CatalogueObjects_V1.Catalogues.Item <|-- BaseSOB_SIA_V1_0.Katalog.SIA_Hoehenbestimmung_Item
        abstract class BaseSOB_SIA_V1_0.Base.BaseClass{
            OBJ_ID : BaseSOB_SIA_V1_0_Base_BaseClass_OBJ_ID_TYPE
            Metaattribute : BaseSOB_SIA_V1_0_Base_BaseClass_Metaattribute_TYPE
            
        }
        class BaseSOB_V1_0.Katalog.SOB_Typ_Item{
            Name : BaseSOB_V1_0_Katalog_SOB_Typ_Item_Name_TYPE
            Code : BaseSOB_V1_0_Katalog_SOB_Typ_Item_Code_TYPE
            Medium : BaseSOB_V1_0_Katalog_SOB_Typ_Item_Medium_TYPE
            
        }
        CatalogueObjects_V1.Catalogues.Item <|-- BaseSOB_V1_0.Katalog.SOB_Typ_Item
        class BaseSOB_V1_0.Katalog.SOB_Linie_Item{
            Name : BaseSOB_V1_0_Katalog_SOB_Linie_Item_Name_TYPE
            
        }
        CatalogueObjects_V1.Catalogues.Item <|-- BaseSOB_V1_0.Katalog.SOB_Linie_Item
        class BaseSOB_V1_0.Katalog.SOB_Bahnhof_Item{
            Name : BaseSOB_V1_0_Katalog_SOB_Bahnhof_Item_Name_TYPE
            Abkuerzung : BaseSOB_V1_0_Katalog_SOB_Bahnhof_Item_Abkuerzung_TYPE
            
        }
        CatalogueObjects_V1.Catalogues.Item <|-- BaseSOB_V1_0.Katalog.SOB_Bahnhof_Item
        class BaseSOB_V1_0.Katalog.SOB_Material_Item{
            Bezeichnung : BaseSOB_V1_0_Katalog_SOB_Material_Item_Bezeichnung_TYPE
            
        }
        CatalogueObjects_V1.Catalogues.Item <|-- BaseSOB_V1_0.Katalog.SOB_Material_Item
        class BaseSOB_V1_0.Katalog.OrganisationItem{
            Bemerkung : BaseSOB_V1_0_Katalog_OrganisationItem_Bemerkung_TYPE
            Bezeichnung : BaseSOB_SIA_V1_0_OrganisationBezeichnung
            UID : BaseSOB_SIA_V1_0_UID
            
        }
        CatalogueObjects_V1.Catalogues.Item <|-- BaseSOB_V1_0.Katalog.OrganisationItem
        class LKSOB_Abwasser_V1_0.SIA_Katalog.SIA_Haltung_Material_Item{
            Name : LKSOB_Abwasser_V1_0_SIA_Katalog_SIA_Haltung_Material_Item_Name_TYPE
            Code : LKSOB_Abwasser_V1_0_SIA_Katalog_SIA_Haltung_Material_Item_Code_TYPE
            
        }
        CatalogueObjects_V1.Catalogues.Item <|-- LKSOB_Abwasser_V1_0.SIA_Katalog.SIA_Haltung_Material_Item
        class LKSOB_Abwasser_V1_0.SIA_Katalog.SIA_Deckel_Lagegenauigkeit_Item{
            Name : LKSOB_Abwasser_V1_0_SIA_Katalog_SIA_Deckel_Lagegenauigkeit_Item_Name_TYPE
            
        }
        CatalogueObjects_V1.Catalogues.Item <|-- LKSOB_Abwasser_V1_0.SIA_Katalog.SIA_Deckel_Lagegenauigkeit_Item
        class LKSOB_Abwasser_V1_0.SIA_Katalog.SIA_Deckel_Deckelform_Item{
            Name : LKSOB_Abwasser_V1_0_SIA_Katalog_SIA_Deckel_Deckelform_Item_Name_TYPE
            
        }
        CatalogueObjects_V1.Catalogues.Item <|-- LKSOB_Abwasser_V1_0.SIA_Katalog.SIA_Deckel_Deckelform_Item
        class LKSOB_Abwasser_V1_0.SIA_Katalog.SIA_Deckel_Verschluss_Item{
            Name : LKSOB_Abwasser_V1_0_SIA_Katalog_SIA_Deckel_Verschluss_Item_Name_TYPE
            Code : LKSOB_Abwasser_V1_0_SIA_Katalog_SIA_Deckel_Verschluss_Item_Code_TYPE
            
        }
        CatalogueObjects_V1.Catalogues.Item <|-- LKSOB_Abwasser_V1_0.SIA_Katalog.SIA_Deckel_Verschluss_Item
        class LKSOB_Abwasser_V1_0.SIA_Katalog.SIA_Versickerungsanlage_Art_Item{
            Name : LKSOB_Abwasser_V1_0_SIA_Katalog_SIA_Versickerungsanlage_Art_Item_Name_TYPE
            
        }
        CatalogueObjects_V1.Catalogues.Item <|-- LKSOB_Abwasser_V1_0.SIA_Katalog.SIA_Versickerungsanlage_Art_Item
        class LKSOB_Abwasser_V1_0.SIA_Katalog.SIA_Versickerungsanlage_Beschriftung_Item{
            Name : LKSOB_Abwasser_V1_0_SIA_Katalog_SIA_Versickerungsanlage_Beschriftung_Item_Name_TYPE
            
        }
        CatalogueObjects_V1.Catalogues.Item <|-- LKSOB_Abwasser_V1_0.SIA_Katalog.SIA_Versickerungsanlage_Beschriftung_Item
        class LKSOB_Abwasser_V1_0.SIA_Katalog.SIA_Versickerungsanlage_Versickerungswasser_Item{
            Name : LKSOB_Abwasser_V1_0_SIA_Katalog_SIA_Versickerungsanlage_Versickerungswasser_Item_Name_TYPE
            Code : LKSOB_Abwasser_V1_0_SIA_Katalog_SIA_Versickerungsanlage_Versickerungswasser_Item_Code_TYPE
            
        }
        CatalogueObjects_V1.Catalogues.Item <|-- LKSOB_Abwasser_V1_0.SIA_Katalog.SIA_Versickerungsanlage_Versickerungswasser_Item
        class LKSOB_Abwasser_V1_0.SIA_Katalog.SIA_Spezialbauwerk_Funktion_Item{
            Name : LKSOB_Abwasser_V1_0_SIA_Katalog_SIA_Spezialbauwerk_Funktion_Item_Name_TYPE
            
        }
        CatalogueObjects_V1.Catalogues.Item <|-- LKSOB_Abwasser_V1_0.SIA_Katalog.SIA_Spezialbauwerk_Funktion_Item
        class LKSOB_Abwasser_V1_0.SIA_Katalog.SIA_Normschacht_Material_Item{
            Name : LKSOB_Abwasser_V1_0_SIA_Katalog_SIA_Normschacht_Material_Item_Name_TYPE
            
        }
        CatalogueObjects_V1.Catalogues.Item <|-- LKSOB_Abwasser_V1_0.SIA_Katalog.SIA_Normschacht_Material_Item
        class LKSOB_Abwasser_V1_0.SIA_Katalog.SIA_Normschacht_Funktion_Item{
            Name : LKSOB_Abwasser_V1_0_SIA_Katalog_SIA_Normschacht_Funktion_Item_Name_TYPE
            
        }
        CatalogueObjects_V1.Catalogues.Item <|-- LKSOB_Abwasser_V1_0.SIA_Katalog.SIA_Normschacht_Funktion_Item
        class LKSOB_Abwasser_V1_0.SIA_Katalog.SIA_Kanal_Nutzungsart_Ist_Item{
            Name : LKSOB_Abwasser_V1_0_SIA_Katalog_SIA_Kanal_Nutzungsart_Ist_Item_Name_TYPE
            Code : LKSOB_Abwasser_V1_0_SIA_Katalog_SIA_Kanal_Nutzungsart_Ist_Item_Code_TYPE
            
        }
        CatalogueObjects_V1.Catalogues.Item <|-- LKSOB_Abwasser_V1_0.SIA_Katalog.SIA_Kanal_Nutzungsart_Ist_Item
        class LKSOB_Abwasser_V1_0.SIA_Katalog.SIA_Kanal_Funktion_Hierarchisch_Item{
            Name : LKSOB_Abwasser_V1_0_SIA_Katalog_SIA_Kanal_Funktion_Hierarchisch_Item_Name_TYPE
            Code : LKSOB_Abwasser_V1_0_SIA_Katalog_SIA_Kanal_Funktion_Hierarchisch_Item_Code_TYPE
            Typ : LKSOB_Abwasser_V1_0_SIA_Katalog_SIA_Kanal_Funktion_Hierarchisch_Item_Typ_TYPE
            
        }
        CatalogueObjects_V1.Catalogues.Item <|-- LKSOB_Abwasser_V1_0.SIA_Katalog.SIA_Kanal_Funktion_Hierarchisch_Item
        class LKSOB_Abwasser_V1_0.SIA_Katalog.SIA_Haltungspunkt_Hoehengenauigkeit_Item{
            Name : LKSOB_Abwasser_V1_0_SIA_Katalog_SIA_Haltungspunkt_Hoehengenauigkeit_Item_Name_TYPE
            Code : LKSOB_Abwasser_V1_0_SIA_Katalog_SIA_Haltungspunkt_Hoehengenauigkeit_Item_Code_TYPE
            
        }
        CatalogueObjects_V1.Catalogues.Item <|-- LKSOB_Abwasser_V1_0.SIA_Katalog.SIA_Haltungspunkt_Hoehengenauigkeit_Item
        class LKSOB_Abwasser_V1_0.SIA_Katalog.SIA_Rohrprofil_Profiltyp_Item{
            Name : LKSOB_Abwasser_V1_0_SIA_Katalog_SIA_Rohrprofil_Profiltyp_Item_Name_TYPE
            Code : LKSOB_Abwasser_V1_0_SIA_Katalog_SIA_Rohrprofil_Profiltyp_Item_Code_TYPE
            
        }
        CatalogueObjects_V1.Catalogues.Item <|-- LKSOB_Abwasser_V1_0.SIA_Katalog.SIA_Rohrprofil_Profiltyp_Item
        class LKSOB_Abwasser_V1_0.SOB_Katalog.SOB_Haltung_Durchleitung_Item{
            Name : LKSOB_Abwasser_V1_0_SOB_Katalog_SOB_Haltung_Durchleitung_Item_Name_TYPE
            
        }
        CatalogueObjects_V1.Catalogues.Item <|-- LKSOB_Abwasser_V1_0.SOB_Katalog.SOB_Haltung_Durchleitung_Item
        class LKSOB_Abwasser_V1_0.SOB_Katalog.SOB_Deckel_Material_Deckelart_Item{
            Name : LKSOB_Abwasser_V1_0_SOB_Katalog_SOB_Deckel_Material_Deckelart_Item_Name_TYPE
            Code : LKSOB_Abwasser_V1_0_SOB_Katalog_SOB_Deckel_Material_Deckelart_Item_Code_TYPE
            
        }
        CatalogueObjects_V1.Catalogues.Item <|-- LKSOB_Abwasser_V1_0.SOB_Katalog.SOB_Deckel_Material_Deckelart_Item
        class LKSOB_Abwasser_V1_0.SOB_Katalog.SOB_EntwaesserungsTypItem{
            Name : LKSOB_Abwasser_V1_0_SOB_Katalog_SOB_EntwaesserungsTypItem_Name_TYPE
            Code : LKSOB_Abwasser_V1_0_SOB_Katalog_SOB_EntwaesserungsTypItem_Code_TYPE
            
        }
        CatalogueObjects_V1.Catalogues.Item <|-- LKSOB_Abwasser_V1_0.SOB_Katalog.SOB_EntwaesserungsTypItem
        class LKSOB_Abwasser_V1_0.SOB_Katalog.SOB_Spezialbauwerk_Ausstattung_Item{
            Name : LKSOB_Abwasser_V1_0_SOB_Katalog_SOB_Spezialbauwerk_Ausstattung_Item_Name_TYPE
            
        }
        CatalogueObjects_V1.Catalogues.Item <|-- LKSOB_Abwasser_V1_0.SOB_Katalog.SOB_Spezialbauwerk_Ausstattung_Item
        class LKSOB_Abwasser_V1_0.SOB_Katalog.SOB_Kanal_Entwaesserungstyp_Item{
            Name : LKSOB_Abwasser_V1_0_SOB_Katalog_SOB_Kanal_Entwaesserungstyp_Item_Name_TYPE
            
        }
        CatalogueObjects_V1.Catalogues.Item <|-- LKSOB_Abwasser_V1_0.SOB_Katalog.SOB_Kanal_Entwaesserungstyp_Item
        class LKSOB_Abwasser_V1_0.SOB_Katalog.SOB_Position_Gleis_Item{
            Name : LKSOB_Abwasser_V1_0_SOB_Katalog_SOB_Position_Gleis_Item_Name_TYPE
            
        }
        CatalogueObjects_V1.Catalogues.Item <|-- LKSOB_Abwasser_V1_0.SOB_Katalog.SOB_Position_Gleis_Item
        abstract class LKSOB_Abwasser_V1_0.Abwasser.SOB_Abwasser_Base_Class{
            Bemerkung : LKSOB_Abwasser_V1_0_Abwasser_SOB_Abwasser_Base_Class_Bemerkung_TYPE
            Bezeichnung : LKSOB_Abwasser_V1_0_Abwasser_SOB_Abwasser_Base_Class_Bezeichnung_TYPE
            
        }
        BaseSOB_SIA_V1_0.Base.BaseClass <|-- LKSOB_Abwasser_V1_0.Abwasser.SOB_Abwasser_Base_Class
        abstract class LKSOB_Abwasser_V1_0.Abwasser.SOB_Abwasser_Base_Class_Extended{
            Eigentuemer : LKSOB_Abwasser_V1_0_Abwasser_SOB_Abwasser_Base_Class_Extended_Eigentuemer_TYPE
            SOB_Betreiber : LKSOB_Abwasser_V1_0_Abwasser_SOB_Abwasser_Base_Class_Extended_SOB_Betreiber_TYPE
            SOB_Km : BaseSOB_V1_0_SOB_Km
            SOB_Linie : LKSOB_Abwasser_V1_0_Abwasser_SOB_Abwasser_Base_Class_Extended_SOB_Linie_TYPE
            
        }
        LKSOB_Abwasser_V1_0.Abwasser.SOB_Abwasser_Base_Class <|-- LKSOB_Abwasser_V1_0.Abwasser.SOB_Abwasser_Base_Class_Extended
        abstract class LKSOB_Abwasser_V1_0.Abwasser.Abwasserbauwerk{
            Baujahr : BaseSOB_SIA_V1_0_Jahr
            Detailgeometrie : BaseSOB_SIA_V1_0_Surface3D
            SOB_TauchbogenVorhanden : LKSOB_Abwasser_V1_0_Abwasser_Abwasserbauwerk_SOB_TauchbogenVorhanden_TYPE
            
        }
        LKSOB_Abwasser_V1_0.Abwasser.SOB_Abwasser_Base_Class_Extended <|-- LKSOB_Abwasser_V1_0.Abwasser.Abwasserbauwerk
        abstract class LKSOB_Abwasser_V1_0.Abwasser.Abwassernetzelement{
            
        }
        
        LKSOB_Abwasser_V1_0.Abwasser.Abwasserbauwerk "1" *-- "0..*" LKSOB_Abwasser_V1_0.Abwasser.Abwassernetzelement
    class LKSOB_Abwasser_V1_0.Abwasser.Haltungspunkt{
            Kote : BaseSOB_SIA_V1_0_Hoehe
            Lage : BaseSOB_SIA_V1_0_HKoord
            Hoehengenauigkeit : LKSOB_Abwasser_V1_0_Abwasser_Haltungspunkt_Hoehengenauigkeit_TYPE
            
        }
        LKSOB_Abwasser_V1_0.Abwasser.SOB_Abwasser_Base_Class_Extended <|-- LKSOB_Abwasser_V1_0.Abwasser.Haltungspunkt
        
        LKSOB_Abwasser_V1_0.Abwasser.Abwassernetzelement "0..1" -- "0..*" LKSOB_Abwasser_V1_0.Abwasser.Haltungspunkt
    class LKSOB_Abwasser_V1_0.Abwasser.Rohrprofil{
            HoehenBreitenverhaeltnis : LKSOB_Abwasser_V1_0_Abwasser_Verhaeltnis_H_B
            Profiltyp : LKSOB_Abwasser_V1_0_Abwasser_Rohrprofil_Profiltyp_TYPE
            
        }
        LKSOB_Abwasser_V1_0.Abwasser.SOB_Abwasser_Base_Class <|-- LKSOB_Abwasser_V1_0.Abwasser.Rohrprofil
        class LKSOB_Abwasser_V1_0.Abwasser.Abwasserknoten{
            Lage : BaseSOB_SIA_V1_0_HKoord
            Sohlenkote : BaseSOB_SIA_V1_0_Hoehe
            
        }
        LKSOB_Abwasser_V1_0.Abwasser.Abwassernetzelement <|-- LKSOB_Abwasser_V1_0.Abwasser.Abwasserknoten
        abstract class LKSOB_Abwasser_V1_0.Abwasser.BauwerksTeil{
            
        }
        
        LKSOB_Abwasser_V1_0.Abwasser.Abwasserbauwerk "1" *-- "0..*" LKSOB_Abwasser_V1_0.Abwasser.BauwerksTeil
    class LKSOB_Abwasser_V1_0.Abwasser.Einleitstelle{
            Deckenkote : BaseSOB_SIA_V1_0_Hoehe
            Maechtigkeit : BaseSOB_SIA_V1_0_Maechtigkeit
            
        }
        LKSOB_Abwasser_V1_0.Abwasser.Abwasserbauwerk <|-- LKSOB_Abwasser_V1_0.Abwasser.Einleitstelle
        class LKSOB_Abwasser_V1_0.Abwasser.Haltung{
            Hoehenbestimmung : LKSOB_Abwasser_V1_0_Abwasser_Haltung_Hoehenbestimmung_TYPE
            Lagebestimmung : LKSOB_Abwasser_V1_0_Abwasser_Haltung_Lagebestimmung_TYPE
            LichteHoehe : LKSOB_Abwasser_V1_0_Abwasser_Lichte_Hoehe
            LaengeEffektiv : LKSOB_Abwasser_V1_0_Abwasser_Haltung_LaengeEffektiv_TYPE
            Material : LKSOB_Abwasser_V1_0_Abwasser_Haltung_Material_TYPE
            Verlauf : BaseSOB_SIA_V1_0_Polyline3D
            SOB_Durchleitung : LKSOB_Abwasser_V1_0_Abwasser_Haltung_SOB_Durchleitung_TYPE
            SOB_Gefaelle : BaseSOB_V1_0_Gefaelle
            SOB_Ueberdeckung : BaseSOB_V1_0_Ueberdeckung
            
        }
        LKSOB_Abwasser_V1_0.Abwasser.Abwassernetzelement <|-- LKSOB_Abwasser_V1_0.Abwasser.Haltung
        
        LKSOB_Abwasser_V1_0.Abwasser.Haltungspunkt "1" -- "0..1" LKSOB_Abwasser_V1_0.Abwasser.Haltung
    
        LKSOB_Abwasser_V1_0.Abwasser.Haltungspunkt "1" -- "0..1" LKSOB_Abwasser_V1_0.Abwasser.Haltung
    
        LKSOB_Abwasser_V1_0.Abwasser.Rohrprofil "0..1" -- "0..*" LKSOB_Abwasser_V1_0.Abwasser.Haltung
    class LKSOB_Abwasser_V1_0.Abwasser.Kanal{
            FunktionHierarchisch : LKSOB_Abwasser_V1_0_Abwasser_Kanal_FunktionHierarchisch_TYPE
            Nutzungsart_Ist : LKSOB_Abwasser_V1_0_Abwasser_Kanal_Nutzungsart_Ist_TYPE
            Rohrlaenge : LKSOB_Abwasser_V1_0_Abwasser_Kanal_Rohrlaenge_TYPE
            SOB_EntwaesserungsTyp : LKSOB_Abwasser_V1_0_Abwasser_Kanal_SOB_EntwaesserungsTyp_TYPE
            SOB_HinweisZurSpuelung : LKSOB_Abwasser_V1_0_Abwasser_Kanal_SOB_HinweisZurSpuelung_TYPE
            SOB_LetzteSpuelung : INTERLIS_XMLDate
            
        }
        LKSOB_Abwasser_V1_0.Abwasser.Abwasserbauwerk <|-- LKSOB_Abwasser_V1_0.Abwasser.Kanal
        class LKSOB_Abwasser_V1_0.Abwasser.Normschacht{
            Funktion : LKSOB_Abwasser_V1_0_Abwasser_Normschacht_Funktion_TYPE
            Maechtigkeit : BaseSOB_SIA_V1_0_Maechtigkeit
            Dimension1 : BaseSOB_SIA_V1_0_Abmessung
            Dimension2 : BaseSOB_SIA_V1_0_Abmessung
            Material : LKSOB_Abwasser_V1_0_Abwasser_Normschacht_Material_TYPE
            SOB_Konus_Einstieg : LKSOB_Abwasser_V1_0_Abwasser_Normschacht_SOB_Konus_Einstieg_TYPE
            SOB_Position_Gleis : LKSOB_Abwasser_V1_0_Abwasser_Normschacht_SOB_Position_Gleis_TYPE
            SOB_Schlammsammler : LKSOB_Abwasser_V1_0_Abwasser_Normschacht_SOB_Schlammsammler_TYPE
            SOB_Material : LKSOB_Abwasser_V1_0_Abwasser_Normschacht_SOB_Material_TYPE
            
        }
        LKSOB_Abwasser_V1_0.Abwasser.Abwasserbauwerk <|-- LKSOB_Abwasser_V1_0.Abwasser.Normschacht
        class LKSOB_Abwasser_V1_0.Abwasser.Spezialbauwerk{
            Deckenkote : BaseSOB_SIA_V1_0_Hoehe
            Funktion : LKSOB_Abwasser_V1_0_Abwasser_Spezialbauwerk_Funktion_TYPE
            Maechtigkeit : BaseSOB_SIA_V1_0_Maechtigkeit
            SOB_Ausstattung : LKSOB_Abwasser_V1_0_Abwasser_Spezialbauwerk_SOB_Ausstattung_TYPE
            SOB_Typ : LKSOB_Abwasser_V1_0_Abwasser_Spezialbauwerk_SOB_Typ_TYPE
            
        }
        LKSOB_Abwasser_V1_0.Abwasser.Abwasserbauwerk <|-- LKSOB_Abwasser_V1_0.Abwasser.Spezialbauwerk
        class LKSOB_Abwasser_V1_0.Abwasser.Versickerungsanlage{
            Deckenkote : BaseSOB_SIA_V1_0_Hoehe
            Dimension_1 : BaseSOB_SIA_V1_0_Abmessung
            Dimension_2 : BaseSOB_SIA_V1_0_Abmessung
            Maechtigkeit : BaseSOB_SIA_V1_0_Maechtigkeit
            Art : LKSOB_Abwasser_V1_0_Abwasser_Versickerungsanlage_Art_TYPE
            Beschriftung : LKSOB_Abwasser_V1_0_Abwasser_Versickerungsanlage_Beschriftung_TYPE
            Schluckvermoegen : LKSOB_Abwasser_V1_0_Abwasser_Versickerungsanlage_Schluckvermoegen_TYPE
            Versickerungswasser : LKSOB_Abwasser_V1_0_Abwasser_Versickerungsanlage_Versickerungswasser_TYPE
            Wirksameflaeche : LKSOB_Abwasser_V1_0_Abwasser_Versickerungsanlage_Wirksameflaeche_TYPE
            
        }
        LKSOB_Abwasser_V1_0.Abwasser.Abwasserbauwerk <|-- LKSOB_Abwasser_V1_0.Abwasser.Versickerungsanlage
        class LKSOB_Abwasser_V1_0.Abwasser.Deckel{
            Kote : BaseSOB_SIA_V1_0_Hoehe
            Lage : BaseSOB_SIA_V1_0_HKoord
            Lagegenauigkeit : LKSOB_Abwasser_V1_0_Abwasser_Deckel_Lagegenauigkeit_TYPE
            Durchmesser : BaseSOB_SIA_V1_0_Abmessung
            Deckelform : LKSOB_Abwasser_V1_0_Abwasser_Deckel_Deckelform_TYPE
            Verschluss : LKSOB_Abwasser_V1_0_Abwasser_Deckel_Verschluss_TYPE
            SOB_Belastbarkeit : LKSOB_Abwasser_V1_0_Abwasser_Deckel_SOB_Belastbarkeit_TYPE
            SOB_Material_Deckelart : LKSOB_Abwasser_V1_0_Abwasser_Deckel_SOB_Material_Deckelart_TYPE
            
        }
        LKSOB_Abwasser_V1_0.Abwasser.BauwerksTeil <|-- LKSOB_Abwasser_V1_0.Abwasser.Deckel
        

@enduml
