@startuml
left to right direction
class INTERLIS.ANYCLASS{
            
        }
        class INTERLIS.ANYSTRUCTURE{
            
        }
        abstract class INTERLIS.METAOBJECT{
            Name : INTERLIS_METAOBJECT_Name_TYPE
            
        }
        abstract class INTERLIS.METAOBJECT_TRANSLATION{
            Name : INTERLIS_METAOBJECT_TRANSLATION_Name_TYPE
            NameInBaseLanguage : INTERLIS_METAOBJECT_TRANSLATION_NameInBaseLanguage_TYPE
            
        }
        class INTERLIS.AXIS{
            
        }
        abstract class INTERLIS.REFSYSTEM{
            
        }
        abstract class INTERLIS.COORDSYSTEM{
            Axis : INTERLIS_COORDSYSTEM_Axis_TYPE
            
        }
        INTERLIS.REFSYSTEM <|-- INTERLIS.COORDSYSTEM
        abstract class INTERLIS.SCALSYSTEM{
            
        }
        abstract class INTERLIS.SIGN{
            
        }
        class INTERLIS.TIMESYSTEMS.CALENDAR{
            
        }
        class INTERLIS.TIMESYSTEMS.TIMEOFDAYSYS{
            
        }
        abstract class INTERLIS.TimeOfDay{
            Hours : INTERLIS_TimeOfDay_Hours_TYPE
            Minutes : INTERLIS_TimeOfDay_Minutes_TYPE
            Seconds : INTERLIS_TimeOfDay_Seconds_TYPE
            
        }
        class INTERLIS.UTC{
            
        }
        class INTERLIS.GregorianDate{
            Year : INTERLIS_GregorianYear
            Month : INTERLIS_GregorianDate_Month_TYPE
            Day : INTERLIS_GregorianDate_Day_TYPE
            
        }
        class INTERLIS.GregorianDateTime{
            Hours : INTERLIS_GregorianDateTime_Hours_TYPE
            Minutes : INTERLIS_GregorianDateTime_Minutes_TYPE
            Seconds : INTERLIS_GregorianDateTime_Seconds_TYPE
            
        }
        INTERLIS.GregorianDate <|-- INTERLIS.GregorianDateTime
        abstract class INTERLIS.LineSegment{
            SegmentEndPoint : INTERLIS_LineCoord
            
        }
        class INTERLIS.StartSegment{
            
        }
        class INTERLIS.StraightSegment{
            
        }
        class INTERLIS.ArcSegment{
            
        }
        class INTERLIS.SurfaceEdge{
            Geometry : INTERLIS_SurfaceEdge_Geometry_TYPE
            LineAttrs : INTERLIS_SurfaceEdge_LineAttrs_TYPE
            
        }
        class INTERLIS.SurfaceBoundary{
            Lines : INTERLIS_SurfaceBoundary_Lines_TYPE
            
        }
        class INTERLIS.LineGeometry{
            Segments : INTERLIS_LineGeometry_Segments_TYPE
            
        }
        class Localisation_V1.LocalisedText{
            Language : InternationalCodes_V1_LanguageCode_ISO639_1
            Text : Localisation_V1_LocalisedText_Text_TYPE
            
        }
        class Localisation_V1.LocalisedMText{
            Language : InternationalCodes_V1_LanguageCode_ISO639_1
            Text : Localisation_V1_LocalisedMText_Text_TYPE
            
        }
        class Localisation_V1.MultilingualText{
            LocalisedText : Localisation_V1_MultilingualText_LocalisedText_TYPE
            
        }
        class Localisation_V1.MultilingualMText{
            LocalisedText : Localisation_V1_MultilingualMText_LocalisedText_TYPE
            
        }
        class LocalisationCH_V1.LocalisedText{
            
        }
        class LocalisationCH_V1.LocalisedMText{
            
        }
        class LocalisationCH_V1.MultilingualText{
            LocalisedText : LocalisationCH_V1_MultilingualText_LocalisedText_TYPE
            
        }
        Localisation_V1.MultilingualText <|-- LocalisationCH_V1.MultilingualText
        class LocalisationCH_V1.MultilingualMText{
            LocalisedText : LocalisationCH_V1_MultilingualMText_LocalisedText_TYPE
            
        }
        Localisation_V1.MultilingualMText <|-- LocalisationCH_V1.MultilingualMText
        abstract class Dictionaries_V1.Dictionaries.Entry{
            Text : Dictionaries_V1_Dictionaries_Entry_Text_TYPE
            
        }
        class Dictionaries_V1.Dictionaries.Dictionary{
            Language : InternationalCodes_V1_LanguageCode_ISO639_1
            Entries : Dictionaries_V1_Dictionaries_Dictionary_Entries_TYPE
            
        }
        class DictionariesCH_V1.Dictionaries.Dictionary{
            
        }
        class CoordSys.Angle_DMS_S{
            Degrees : CoordSys_Angle_DMS_S_Degrees_TYPE
            Minutes : CoordSys_Angle_DMS_S_Minutes_TYPE
            Seconds : CoordSys_Angle_DMS_S_Seconds_TYPE
            
        }
        class CoordSys.CoordsysTopic.Ellipsoid{
            EllipsoidAlias : CoordSys_CoordsysTopic_Ellipsoid_EllipsoidAlias_TYPE
            SemiMajorAxis : CoordSys_CoordsysTopic_Ellipsoid_SemiMajorAxis_TYPE
            InverseFlattening : CoordSys_CoordsysTopic_Ellipsoid_InverseFlattening_TYPE
            Remarks : CoordSys_CoordsysTopic_Ellipsoid_Remarks_TYPE
            
        }
        INTERLIS.REFSYSTEM <|-- CoordSys.CoordsysTopic.Ellipsoid
        class CoordSys.CoordsysTopic.GravityModel{
            GravityModAlias : CoordSys_CoordsysTopic_GravityModel_GravityModAlias_TYPE
            Definition : CoordSys_CoordsysTopic_GravityModel_Definition_TYPE
            
        }
        INTERLIS.REFSYSTEM <|-- CoordSys.CoordsysTopic.GravityModel
        class CoordSys.CoordsysTopic.GeoidModel{
            GeoidModAlias : CoordSys_CoordsysTopic_GeoidModel_GeoidModAlias_TYPE
            Definition : CoordSys_CoordsysTopic_GeoidModel_Definition_TYPE
            
        }
        INTERLIS.REFSYSTEM <|-- CoordSys.CoordsysTopic.GeoidModel
        class CoordSys.CoordsysTopic.LengthAXIS{
            ShortName : CoordSys_CoordsysTopic_LengthAXIS_ShortName_TYPE
            Description : CoordSys_CoordsysTopic_LengthAXIS_Description_TYPE
            
        }
        INTERLIS.AXIS <|-- CoordSys.CoordsysTopic.LengthAXIS
        class CoordSys.CoordsysTopic.AngleAXIS{
            ShortName : CoordSys_CoordsysTopic_AngleAXIS_ShortName_TYPE
            Description : CoordSys_CoordsysTopic_AngleAXIS_Description_TYPE
            
        }
        INTERLIS.AXIS <|-- CoordSys.CoordsysTopic.AngleAXIS
        class CoordSys.CoordsysTopic.GeoCartesian1D{
            Axis : CoordSys_CoordsysTopic_GeoCartesian1D_Axis_TYPE
            
        }
        INTERLIS.COORDSYSTEM <|-- CoordSys.CoordsysTopic.GeoCartesian1D
        class CoordSys.CoordsysTopic.GeoHeight{
            System : CoordSys_CoordsysTopic_GeoHeight_System_TYPE
            ReferenceHeight : CoordSys_CoordsysTopic_GeoHeight_ReferenceHeight_TYPE
            ReferenceHeightDescr : CoordSys_CoordsysTopic_GeoHeight_ReferenceHeightDescr_TYPE
            
        }
        CoordSys.CoordsysTopic.GeoCartesian1D <|-- CoordSys.CoordsysTopic.GeoHeight
        
        CoordSys.CoordsysTopic.GeoHeight "0..*" -- "1" CoordSys.CoordsysTopic.Ellipsoid
    
        CoordSys.CoordsysTopic.GeoHeight "0..*" -- "1" CoordSys.CoordsysTopic.GravityModel
    
        CoordSys.CoordsysTopic.GeoHeight "0..*" -- "1" CoordSys.CoordsysTopic.GeoidModel
    class CoordSys.CoordsysTopic.GeoCartesian2D{
            Axis : CoordSys_CoordsysTopic_GeoCartesian2D_Axis_TYPE
            Definition : CoordSys_CoordsysTopic_GeoCartesian2D_Definition_TYPE
            
        }
        INTERLIS.COORDSYSTEM <|-- CoordSys.CoordsysTopic.GeoCartesian2D
        class CoordSys.CoordsysTopic.GeoCartesian3D{
            Axis : CoordSys_CoordsysTopic_GeoCartesian3D_Axis_TYPE
            Definition : CoordSys_CoordsysTopic_GeoCartesian3D_Definition_TYPE
            
        }
        INTERLIS.COORDSYSTEM <|-- CoordSys.CoordsysTopic.GeoCartesian3D
        class CoordSys.CoordsysTopic.GeoEllipsoidal{
            Axis : CoordSys_CoordsysTopic_GeoEllipsoidal_Axis_TYPE
            Definition : CoordSys_CoordsysTopic_GeoEllipsoidal_Definition_TYPE
            
        }
        INTERLIS.COORDSYSTEM <|-- CoordSys.CoordsysTopic.GeoEllipsoidal
        
        CoordSys.CoordsysTopic.GeoEllipsoidal "0..*" -- "1" CoordSys.CoordsysTopic.Ellipsoid
    
        CoordSys.CoordsysTopic.GeoCartesian2D "0..*" -- "0..*" CoordSys.CoordsysTopic.GeoCartesian2D
    
        CoordSys.CoordsysTopic.GeoCartesian3D "0..*" -- "0..*" CoordSys.CoordsysTopic.GeoCartesian3D
    
        CoordSys.CoordsysTopic.GeoEllipsoidal "0..*" -- "0..*" CoordSys.CoordsysTopic.GeoEllipsoidal
    
        CoordSys.CoordsysTopic.GeoEllipsoidal "0..*" -- "0..*" CoordSys.CoordsysTopic.GeoCartesian2D
    
        CoordSys.CoordsysTopic.GeoHeight "0..*" -- "0..*" CoordSys.CoordsysTopic.GeoHeight
    abstract class AdministrativeUnits_V1.AdministrativeUnits.AdministrativeElement{
            
        }
        class AdministrativeUnits_V1.AdministrativeUnits.AdministrativeUnit{
            
        }
        
        AdministrativeUnits_V1.AdministrativeUnits.AdministrativeUnit "0..1" o-- "0..*" AdministrativeUnits_V1.AdministrativeUnits.AdministrativeUnit
    class AdministrativeUnits_V1.AdministrativeUnits.AdministrativeUnion{
            
        }
        
        AdministrativeUnits_V1.AdministrativeUnits.AdministrativeUnion "0..*" o-- "0..*" AdministrativeUnits_V1.AdministrativeUnits.AdministrativeElement
    class AdministrativeUnits_V1.Countries.Country{
            Code : InternationalCodes_V1_CountryCode_ISO3166_1
            
        }
        AdministrativeUnits_V1.AdministrativeUnits.AdministrativeUnit <|-- AdministrativeUnits_V1.Countries.Country
        class AdministrativeUnits_V1.CountryNames.CountryName{
            Code : InternationalCodes_V1_CountryCode_ISO3166_1
            
        }
        Dictionaries_V1.Dictionaries.Entry <|-- AdministrativeUnits_V1.CountryNames.CountryName
        class AdministrativeUnits_V1.CountryNames.CountryNamesTranslation{
            Entries : AdministrativeUnits_V1_CountryNames_CountryNamesTranslation_Entries_TYPE
            
        }
        Dictionaries_V1.Dictionaries.Dictionary <|-- AdministrativeUnits_V1.CountryNames.CountryNamesTranslation
        abstract class AdministrativeUnits_V1.Agencies.Agency{
            
        }
        
        AdministrativeUnits_V1.AdministrativeUnits.AdministrativeElement "1" o-- "0..*" AdministrativeUnits_V1.Agencies.Agency
    
        AdministrativeUnits_V1.AdministrativeUnits.AdministrativeElement "0..*" -- "0..*" AdministrativeUnits_V1.Agencies.Agency
    class AdministrativeUnitsCH_V1.CHCantons.CHCanton{
            Code : CHAdminCodes_V1_CHCantonCode
            Name : AdministrativeUnitsCH_V1_CHCantons_CHCanton_Name_TYPE
            Web : AdministrativeUnitsCH_V1_CHCantons_CHCanton_Web_TYPE
            
        }
        AdministrativeUnits_V1.AdministrativeUnits.AdministrativeUnit <|-- AdministrativeUnitsCH_V1.CHCantons.CHCanton
        
        AdministrativeUnits_V1.Countries.Country "1" o-- "0..*" AdministrativeUnitsCH_V1.CHCantons.CHCanton
    class AdministrativeUnitsCH_V1.CHDistricts.CHDistrict{
            ShortName : AdministrativeUnitsCH_V1_CHDistricts_CHDistrict_ShortName_TYPE
            Name : AdministrativeUnitsCH_V1_CHDistricts_CHDistrict_Name_TYPE
            Web : AdministrativeUnitsCH_V1_CHDistricts_CHDistrict_Web_TYPE
            
        }
        AdministrativeUnits_V1.AdministrativeUnits.AdministrativeUnit <|-- AdministrativeUnitsCH_V1.CHDistricts.CHDistrict
        
        AdministrativeUnitsCH_V1.CHCantons.CHCanton "1" o-- "0..*" AdministrativeUnitsCH_V1.CHDistricts.CHDistrict
    class AdministrativeUnitsCH_V1.CHMunicipalities.CHMunicipality{
            Code : CHAdminCodes_V1_CHMunicipalityCode
            Name : AdministrativeUnitsCH_V1_CHMunicipalities_CHMunicipality_Name_TYPE
            Web : AdministrativeUnitsCH_V1_CHMunicipalities_CHMunicipality_Web_TYPE
            
        }
        AdministrativeUnits_V1.AdministrativeUnits.AdministrativeUnit <|-- AdministrativeUnitsCH_V1.CHMunicipalities.CHMunicipality
        
        AdministrativeUnitsCH_V1.CHDistricts.CHDistrict "1" o-- "0..*" AdministrativeUnitsCH_V1.CHMunicipalities.CHMunicipality
    class AdministrativeUnitsCH_V1.CHAdministrativeUnions.AdministrativeUnion{
            Name : AdministrativeUnitsCH_V1_CHAdministrativeUnions_AdministrativeUnion_Name_TYPE
            Web : AdministrativeUnitsCH_V1_CHAdministrativeUnions_AdministrativeUnion_Web_TYPE
            Description : AdministrativeUnitsCH_V1_CHAdministrativeUnions_AdministrativeUnion_Description_TYPE
            
        }
        AdministrativeUnits_V1.AdministrativeUnits.AdministrativeUnion <|-- AdministrativeUnitsCH_V1.CHAdministrativeUnions.AdministrativeUnion
        class AdministrativeUnitsCH_V1.CHAgencies.Agency{
            Name : AdministrativeUnitsCH_V1_CHAgencies_Agency_Name_TYPE
            Web : AdministrativeUnitsCH_V1_CHAgencies_Agency_Web_TYPE
            Description : AdministrativeUnitsCH_V1_CHAgencies_Agency_Description_TYPE
            
        }
        AdministrativeUnits_V1.Agencies.Agency <|-- AdministrativeUnitsCH_V1.CHAgencies.Agency
        class GeometryCHLV03_V1.LineStructure{
            Line : GeometryCHLV03_V1_Line
            
        }
        class GeometryCHLV03_V1.DirectedLineStructure{
            Line : GeometryCHLV03_V1_DirectedLine
            
        }
        class GeometryCHLV03_V1.MultiLine{
            Lines : GeometryCHLV03_V1_MultiLine_Lines_TYPE
            
        }
        class GeometryCHLV03_V1.MultiDirectedLine{
            Lines : GeometryCHLV03_V1_MultiDirectedLine_Lines_TYPE
            
        }
        class GeometryCHLV03_V1.SurfaceStructure{
            Surface : GeometryCHLV03_V1_Surface
            
        }
        class GeometryCHLV03_V1.MultiSurface{
            Surfaces : GeometryCHLV03_V1_MultiSurface_Surfaces_TYPE
            
        }
        class GeometryCHLV95_V1.LineStructure{
            Line : GeometryCHLV95_V1_Line
            
        }
        class GeometryCHLV95_V1.DirectedLineStructure{
            Line : GeometryCHLV95_V1_DirectedLine
            
        }
        class GeometryCHLV95_V1.MultiLine{
            Lines : GeometryCHLV95_V1_MultiLine_Lines_TYPE
            
        }
        class GeometryCHLV95_V1.MultiDirectedLine{
            Lines : GeometryCHLV95_V1_MultiDirectedLine_Lines_TYPE
            
        }
        class GeometryCHLV95_V1.SurfaceStructure{
            Surface : GeometryCHLV95_V1_Surface
            
        }
        class GeometryCHLV95_V1.MultiSurface{
            Surfaces : GeometryCHLV95_V1_MultiSurface_Surfaces_TYPE
            
        }
        class Planungszonen_V1_1.LocalisedUri{
            Language : InternationalCodes_V1_LanguageCode_ISO639_1
            Text : Planungszonen_V1_1_LocalisedUri_Text_TYPE
            
        }
        class Planungszonen_V1_1.MultilingualUri{
            LocalisedText : Planungszonen_V1_1_MultilingualUri_LocalisedText_TYPE
            
        }
        class Planungszonen_V1_1.LocalisedBlob{
            Language : InternationalCodes_V1_LanguageCode_ISO639_1
            Blob : Planungszonen_V1_1_LocalisedBlob_Blob_TYPE
            
        }
        class Planungszonen_V1_1.MultilingualBlob{
            LocalisedBlob : Planungszonen_V1_1_MultilingualBlob_LocalisedBlob_TYPE
            
        }
        class Planungszonen_V1_1.Rechtsvorschriften.Dokument{
            Typ : Planungszonen_V1_1_DokumentTyp
            Titel : Planungszonen_V1_1_Rechtsvorschriften_Dokument_Titel_TYPE
            Abkuerzung : Planungszonen_V1_1_Rechtsvorschriften_Dokument_Abkuerzung_TYPE
            OffizielleNr : Planungszonen_V1_1_Rechtsvorschriften_Dokument_OffizielleNr_TYPE
            NurInGemeinde : CHAdminCodes_V1_CHMunicipalityCode
            TextImWeb : Planungszonen_V1_1_Rechtsvorschriften_Dokument_TextImWeb_TYPE
            Dokument : Planungszonen_V1_1_Rechtsvorschriften_Dokument_Dokument_TYPE
            AuszugIndex : Planungszonen_V1_1_Rechtsvorschriften_Dokument_AuszugIndex_TYPE
            Rechtsstatus : Planungszonen_V1_1_RechtsStatus
            publiziertAb : INTERLIS_XMLDate
            publiziertBis : INTERLIS_XMLDate
            
        }
        class Planungszonen_V1_1.Geobasisdaten.Planungszone{
            Geometrie : Planungszonen_V1_1_Einzelflaeche
            publiziertAb : INTERLIS_XMLDate
            publiziertBis : INTERLIS_XMLDate
            Rechtsstatus : Planungszonen_V1_1_RechtsStatus
            Bemerkungen : Planungszonen_V1_1_Geobasisdaten_Planungszone_Bemerkungen_TYPE
            
        }
        class Planungszonen_V1_1.Geobasisdaten.Typ_Planungszone{
            Code : Planungszonen_V1_1_Geobasisdaten_Typ_Planungszone_Code_TYPE
            Bezeichnung : Planungszonen_V1_1_Geobasisdaten_Typ_Planungszone_Bezeichnung_TYPE
            Abkuerzung : Planungszonen_V1_1_Geobasisdaten_Typ_Planungszone_Abkuerzung_TYPE
            Festlegung_Stufe : Planungszonen_V1_1_Festlegung_Stufe
            Bemerkungen : Planungszonen_V1_1_Geobasisdaten_Typ_Planungszone_Bemerkungen_TYPE
            Symbol : Planungszonen_V1_1_Geobasisdaten_Typ_Planungszone_Symbol_TYPE
            
        }
        
        Planungszonen_V1_1.Geobasisdaten.Planungszone "0..*" -- "0..*" Planungszonen_V1_1.Rechtsvorschriften.Dokument
    
        Planungszonen_V1_1.Geobasisdaten.Typ_Planungszone "0..*" -- "0..*" Planungszonen_V1_1.Rechtsvorschriften.Dokument
    
        Planungszonen_V1_1.Geobasisdaten.Planungszone "0..*" --o "1" Planungszonen_V1_1.Geobasisdaten.Typ_Planungszone
    class Planungszonen_V1_1.TransferMetadaten.Amt{
            Name : Planungszonen_V1_1_TransferMetadaten_Amt_Name_TYPE
            AmtImWeb : Planungszonen_V1_1_TransferMetadaten_Amt_AmtImWeb_TYPE
            UID : Planungszonen_V1_1_TransferMetadaten_Amt_UID_TYPE
            Zeile1 : Planungszonen_V1_1_TransferMetadaten_Amt_Zeile1_TYPE
            Zeile2 : Planungszonen_V1_1_TransferMetadaten_Amt_Zeile2_TYPE
            Strasse : Planungszonen_V1_1_TransferMetadaten_Amt_Strasse_TYPE
            Hausnr : Planungszonen_V1_1_TransferMetadaten_Amt_Hausnr_TYPE
            PLZ : Planungszonen_V1_1_TransferMetadaten_Amt_PLZ_TYPE
            Ort : Planungszonen_V1_1_TransferMetadaten_Amt_Ort_TYPE
            
        }
        class Planungszonen_V1_1.TransferMetadaten.Datenbestand{
            BasketID : Planungszonen_V1_1_TypeID
            Stand : INTERLIS_XMLDate
            Lieferdatum : INTERLIS_XMLDate
            Bemerkungen : Planungszonen_V1_1_TransferMetadaten_Datenbestand_Bemerkungen_TYPE
            
        }
        
        Planungszonen_V1_1.TransferMetadaten.Amt "1" o-- "0..*" Planungszonen_V1_1.TransferMetadaten.Datenbestand
    

@enduml
