@startuml
left to right direction
class INTERLIS.ANYCLASS{
            
        }
        class INTERLIS.ANYSTRUCTURE{
            
        }
        abstract class INTERLIS.METAOBJECT{
            Name : INTERLIS_METAOBJECT_Name_TYPE
            
        }
        abstract class INTERLIS.METAOBJECT_TRANSLATION{
            Name : INTERLIS_METAOBJECT_TRANSLATION_Name_TYPE
            NameInBaseLanguage : INTERLIS_METAOBJECT_TRANSLATION_NameInBaseLanguage_TYPE
            
        }
        class INTERLIS.AXIS{
            
        }
        abstract class INTERLIS.REFSYSTEM{
            
        }
        abstract class INTERLIS.COORDSYSTEM{
            Axis : INTERLIS_COORDSYSTEM_Axis_TYPE
            
        }
        INTERLIS.REFSYSTEM <|-- INTERLIS.COORDSYSTEM
        abstract class INTERLIS.SCALSYSTEM{
            
        }
        abstract class INTERLIS.SIGN{
            
        }
        class INTERLIS.TIMESYSTEMS.CALENDAR{
            
        }
        class INTERLIS.TIMESYSTEMS.TIMEOFDAYSYS{
            
        }
        abstract class INTERLIS.TimeOfDay{
            Hours : INTERLIS_TimeOfDay_Hours_TYPE
            Minutes : INTERLIS_TimeOfDay_Minutes_TYPE
            Seconds : INTERLIS_TimeOfDay_Seconds_TYPE
            
        }
        class INTERLIS.UTC{
            
        }
        class INTERLIS.GregorianDate{
            Year : INTERLIS_GregorianYear
            Month : INTERLIS_GregorianDate_Month_TYPE
            Day : INTERLIS_GregorianDate_Day_TYPE
            
        }
        class INTERLIS.GregorianDateTime{
            Hours : INTERLIS_GregorianDateTime_Hours_TYPE
            Minutes : INTERLIS_GregorianDateTime_Minutes_TYPE
            Seconds : INTERLIS_GregorianDateTime_Seconds_TYPE
            
        }
        INTERLIS.GregorianDate <|-- INTERLIS.GregorianDateTime
        abstract class INTERLIS.LineSegment{
            SegmentEndPoint : INTERLIS_LineCoord
            
        }
        class INTERLIS.StartSegment{
            
        }
        class INTERLIS.StraightSegment{
            
        }
        class INTERLIS.ArcSegment{
            
        }
        class INTERLIS.SurfaceEdge{
            Geometry : INTERLIS_SurfaceEdge_Geometry_TYPE
            LineAttrs : INTERLIS_SurfaceEdge_LineAttrs_TYPE
            
        }
        class INTERLIS.SurfaceBoundary{
            Lines : INTERLIS_SurfaceBoundary_Lines_TYPE
            
        }
        class INTERLIS.LineGeometry{
            Segments : INTERLIS_LineGeometry_Segments_TYPE
            
        }
        class CoordSys.Angle_DMS_S{
            Degrees : CoordSys_Angle_DMS_S_Degrees_TYPE
            Minutes : CoordSys_Angle_DMS_S_Minutes_TYPE
            Seconds : CoordSys_Angle_DMS_S_Seconds_TYPE
            
        }
        class CoordSys.CoordsysTopic.Ellipsoid{
            EllipsoidAlias : CoordSys_CoordsysTopic_Ellipsoid_EllipsoidAlias_TYPE
            SemiMajorAxis : CoordSys_CoordsysTopic_Ellipsoid_SemiMajorAxis_TYPE
            InverseFlattening : CoordSys_CoordsysTopic_Ellipsoid_InverseFlattening_TYPE
            Remarks : CoordSys_CoordsysTopic_Ellipsoid_Remarks_TYPE
            
        }
        INTERLIS.REFSYSTEM <|-- CoordSys.CoordsysTopic.Ellipsoid
        class CoordSys.CoordsysTopic.GravityModel{
            GravityModAlias : CoordSys_CoordsysTopic_GravityModel_GravityModAlias_TYPE
            Definition : CoordSys_CoordsysTopic_GravityModel_Definition_TYPE
            
        }
        INTERLIS.REFSYSTEM <|-- CoordSys.CoordsysTopic.GravityModel
        class CoordSys.CoordsysTopic.GeoidModel{
            GeoidModAlias : CoordSys_CoordsysTopic_GeoidModel_GeoidModAlias_TYPE
            Definition : CoordSys_CoordsysTopic_GeoidModel_Definition_TYPE
            
        }
        INTERLIS.REFSYSTEM <|-- CoordSys.CoordsysTopic.GeoidModel
        class CoordSys.CoordsysTopic.LengthAXIS{
            ShortName : CoordSys_CoordsysTopic_LengthAXIS_ShortName_TYPE
            Description : CoordSys_CoordsysTopic_LengthAXIS_Description_TYPE
            
        }
        INTERLIS.AXIS <|-- CoordSys.CoordsysTopic.LengthAXIS
        class CoordSys.CoordsysTopic.AngleAXIS{
            ShortName : CoordSys_CoordsysTopic_AngleAXIS_ShortName_TYPE
            Description : CoordSys_CoordsysTopic_AngleAXIS_Description_TYPE
            
        }
        INTERLIS.AXIS <|-- CoordSys.CoordsysTopic.AngleAXIS
        class CoordSys.CoordsysTopic.GeoCartesian1D{
            Axis : CoordSys_CoordsysTopic_GeoCartesian1D_Axis_TYPE
            
        }
        INTERLIS.COORDSYSTEM <|-- CoordSys.CoordsysTopic.GeoCartesian1D
        class CoordSys.CoordsysTopic.GeoHeight{
            System : CoordSys_CoordsysTopic_GeoHeight_System_TYPE
            ReferenceHeight : CoordSys_CoordsysTopic_GeoHeight_ReferenceHeight_TYPE
            ReferenceHeightDescr : CoordSys_CoordsysTopic_GeoHeight_ReferenceHeightDescr_TYPE
            
        }
        CoordSys.CoordsysTopic.GeoCartesian1D <|-- CoordSys.CoordsysTopic.GeoHeight
        
        CoordSys.CoordsysTopic.GeoHeight "0..*" -- "1" CoordSys.CoordsysTopic.Ellipsoid
    
        CoordSys.CoordsysTopic.GeoHeight "0..*" -- "1" CoordSys.CoordsysTopic.GravityModel
    
        CoordSys.CoordsysTopic.GeoHeight "0..*" -- "1" CoordSys.CoordsysTopic.GeoidModel
    class CoordSys.CoordsysTopic.GeoCartesian2D{
            Axis : CoordSys_CoordsysTopic_GeoCartesian2D_Axis_TYPE
            Definition : CoordSys_CoordsysTopic_GeoCartesian2D_Definition_TYPE
            
        }
        INTERLIS.COORDSYSTEM <|-- CoordSys.CoordsysTopic.GeoCartesian2D
        class CoordSys.CoordsysTopic.GeoCartesian3D{
            Axis : CoordSys_CoordsysTopic_GeoCartesian3D_Axis_TYPE
            Definition : CoordSys_CoordsysTopic_GeoCartesian3D_Definition_TYPE
            
        }
        INTERLIS.COORDSYSTEM <|-- CoordSys.CoordsysTopic.GeoCartesian3D
        class CoordSys.CoordsysTopic.GeoEllipsoidal{
            Axis : CoordSys_CoordsysTopic_GeoEllipsoidal_Axis_TYPE
            Definition : CoordSys_CoordsysTopic_GeoEllipsoidal_Definition_TYPE
            
        }
        INTERLIS.COORDSYSTEM <|-- CoordSys.CoordsysTopic.GeoEllipsoidal
        
        CoordSys.CoordsysTopic.GeoEllipsoidal "0..*" -- "1" CoordSys.CoordsysTopic.Ellipsoid
    
        CoordSys.CoordsysTopic.GeoCartesian2D "0..*" -- "0..*" CoordSys.CoordsysTopic.GeoCartesian2D
    
        CoordSys.CoordsysTopic.GeoCartesian3D "0..*" -- "0..*" CoordSys.CoordsysTopic.GeoCartesian3D
    
        CoordSys.CoordsysTopic.GeoEllipsoidal "0..*" -- "0..*" CoordSys.CoordsysTopic.GeoEllipsoidal
    
        CoordSys.CoordsysTopic.GeoEllipsoidal "0..*" -- "0..*" CoordSys.CoordsysTopic.GeoCartesian2D
    
        CoordSys.CoordsysTopic.GeoHeight "0..*" -- "0..*" CoordSys.CoordsysTopic.GeoHeight
    class GeometryCHLV03_V1.LineStructure{
            Line : GeometryCHLV03_V1_Line
            
        }
        class GeometryCHLV03_V1.DirectedLineStructure{
            Line : GeometryCHLV03_V1_DirectedLine
            
        }
        class GeometryCHLV03_V1.MultiLine{
            Lines : GeometryCHLV03_V1_MultiLine_Lines_TYPE
            
        }
        class GeometryCHLV03_V1.MultiDirectedLine{
            Lines : GeometryCHLV03_V1_MultiDirectedLine_Lines_TYPE
            
        }
        class GeometryCHLV03_V1.SurfaceStructure{
            Surface : GeometryCHLV03_V1_Surface
            
        }
        class GeometryCHLV03_V1.MultiSurface{
            Surfaces : GeometryCHLV03_V1_MultiSurface_Surfaces_TYPE
            
        }
        class GeometryCHLV95_V1.LineStructure{
            Line : GeometryCHLV95_V1_Line
            
        }
        class GeometryCHLV95_V1.DirectedLineStructure{
            Line : GeometryCHLV95_V1_DirectedLine
            
        }
        class GeometryCHLV95_V1.MultiLine{
            Lines : GeometryCHLV95_V1_MultiLine_Lines_TYPE
            
        }
        class GeometryCHLV95_V1.MultiDirectedLine{
            Lines : GeometryCHLV95_V1_MultiDirectedLine_Lines_TYPE
            
        }
        class GeometryCHLV95_V1.SurfaceStructure{
            Surface : GeometryCHLV95_V1_Surface
            
        }
        class GeometryCHLV95_V1.MultiSurface{
            Surfaces : GeometryCHLV95_V1_MultiSurface_Surfaces_TYPE
            
        }
        class SO_AFU_ABBAUSTELLEN_Publikation_20221103.Abbaustelle.Abbaustelle{
            MPoly : SO_AFU_ABBAUSTELLEN_Publikation_20221103_Abbaustelle_Abbaustelle_MPoly_TYPE
            Bezeichnung : SO_AFU_ABBAUSTELLEN_Publikation_20221103_Abbaustelle_Abbaustelle_Bezeichnung_TYPE
            Aktennummer : SO_AFU_ABBAUSTELLEN_Publikation_20221103_Abbaustelle_Abbaustelle_Aktennummer_TYPE
            Gemeinde_Name : SO_AFU_ABBAUSTELLEN_Publikation_20221103_Abbaustelle_Abbaustelle_Gemeinde_Name_TYPE
            Gemeinde_Bfs : SO_AFU_ABBAUSTELLEN_Publikation_20221103_Abbaustelle_Abbaustelle_Gemeinde_Bfs_TYPE
            Art : SO_AFU_ABBAUSTELLEN_Publikation_20221103_Abbaustelle_Art_Code
            Stand : SO_AFU_ABBAUSTELLEN_Publikation_20221103_Abbaustelle_Stand_Code
            Rohstoffart : SO_AFU_ABBAUSTELLEN_Publikation_20221103_Abbaustelle_Rohstoffart_Code
            GestaltungsplanVorhanden : SO_AFU_ABBAUSTELLEN_Publikation_20221103_Abbaustelle_Abbaustelle_GestaltungsplanVorhanden_TYPE
            Richtplannummer : SO_AFU_ABBAUSTELLEN_Publikation_20221103_Abbaustelle_Abbaustelle_Richtplannummer_TYPE
            StandRichtplan : SO_AFU_ABBAUSTELLEN_Publikation_20221103_Abbaustelle_StandRichtplan_Code
            RRB_Nr : SO_AFU_ABBAUSTELLEN_Publikation_20221103_Abbaustelle_Abbaustelle_RRB_Nr_TYPE
            RRB_Datum : INTERLIS_XMLDate
            
        }
        

@enduml
